<svg width="70" height="63" xmlns="http://www.w3.org/2000/svg">
    <g fill-rule="nonzero" fill="none">
        <path d="m68.758 50.629-26.92-46.63a7.992 7.992 0 0 0-13.846 0L1.073 50.629a7.99 7.99 0 0 0 6.918 11.99H61.84a7.99 7.99 0 0 0 6.918-11.99z" fill="#FF3754"/>
        <path d="M36.068 52.096a1.818 1.818 0 0 1-1.17.502h-.003a1.744 1.744 0 0 1-1.186-.56 1.693 1.693 0 0 1-.514-1.182c.023-.457.226-.886.565-1.194a1.687 1.687 0 0 1 1.144-.498h.031c.454.025.88.225 1.188.558.319.308.503.729.513 1.171-.024.46-.228.892-.568 1.203zM36.282 40.037a1.37 1.37 0 0 1-2.734 0l-1.274-21.001a12.29 12.29 0 0 1 5.207-.045l-1.199 21.046z" stroke="#FFF" stroke-width="1.685" fill="#FFF"/>
    </g>
</svg>
