<?xml version="1.0" encoding="UTF-8"?>
<svg width="20px" height="22px" viewBox="0 0 20 22" version="1.1" xmlns="http://www.w3.org/2000/svg" xmlns:xlink="http://www.w3.org/1999/xlink">
    <title>interface-trash-bin-3</title>
    <g id="Manage-Blogs" stroke="none" stroke-width="1" fill="none" fill-rule="evenodd" stroke-linecap="round" stroke-linejoin="round">
        <g id="Blog-Management---Listing---Ellipses-Options" transform="translate(-900.000000, -702.000000)" stroke-width="1.2">
            <g id="interface-trash-bin-3" transform="translate(901.000000, 703.000000)">
                <path d="M5.88884799,2.944424 L5.88884799,0.736105999 C5.88884799,0.329565882 6.21841388,0 6.62495399,0 L11.04159,0 C11.4481301,0 11.777696,0.329565882 11.777696,0.736105999 L11.777696,2.944424" id="Path" stroke-opacity="0.6" stroke="#6E6E7A"></path>
                <line x1="6.62495399" y1="7.75119617" x2="6.62495399" y2="15.1122562" id="Path" stroke-opacity="0.6" stroke="#6E6E7A"></line>
                <line x1="11.04159" y1="7.75119617" x2="11.04159" y2="15.1122562" id="Path" stroke-opacity="0.6" stroke="#6E6E7A"></line>
                <path d="M1.472212,2.944424 L16.194332,2.944424 L16.194332,17.4935591 C16.194332,18.7131794 15.2056343,19.7018771 13.986014,19.7018771 L3.68053,19.7018771 C2.46090964,19.7018771 1.472212,18.7131794 1.472212,17.4935591 L1.472212,2.944424 Z" id="Path" stroke-opacity="0.6" stroke="#6E6E7A"></path>
                <line x1="0" y1="2.944424" x2="17.666544" y2="2.944424" id="Path" stroke="#A8A8AF"></line>
            </g>
        </g>
    </g>
</svg>