<?xml version="1.0" encoding="UTF-8"?>
<svg width="200px" height="61px" viewBox="0 0 200 61" version="1.1" xmlns="http://www.w3.org/2000/svg" xmlns:xlink="http://www.w3.org/1999/xlink">
    <title>Weebl Logo@1.5x</title>
    <defs>
        <path d="M36.358,15.5951586 C36.71464,15.5951586 37.16952,15.9798599 37.7224,16.7493428 L47.67464,30.9484573 L52.49032,15.8367507 L67.79328,15.8367507 L53.828,57.602006 C53.2216,59.3914731 52.196,60.2861665 50.75136,60.2861665 C49.30664,60.2861665 48.01352,59.4630678 46.87208,57.8167902 L34.91328,40.504027 L22.04488,57.8704862 C20.88552,59.4093718 19.59248,60.1788547 18.1656,60.1788547 C16.73872,60.1788547 15.69536,59.284081 15.03544,57.4946941 L-1.42108547e-13,15.8367507 L19.18224,15.8367507 L24.07816,31.1095455 L34.75272,16.7493428 C35.10944,16.2661586 35.37704,15.953052 35.55536,15.8098626 C35.73368,15.6667533 36.00128,15.5951586 36.358,15.5951586 Z M88.0456,24.023352 C92.8968,24.023352 96.5624,25.0880428 99.0416,27.2175047 C101.5384,29.3468862 102.7776,31.9773507 102.760185,35.1088981 C102.760185,38.2403652 101.2704,41.0229283 98.292,43.4565876 C95.3136,45.8902468 91.3008,47.1070362 86.2528,47.1070362 L84.7816,47.1070362 L84.7816,47.1070362 C84.3184,47.1070362 83.872,47.0891376 83.444,47.0533402 C83.444,49.182802 84.5768,50.3458955 86.8416,50.5427007 C87.4664,50.5963968 88.0728,50.6232849 88.6608,50.6232849 C90.1768,50.6232849 92.0768,50.2743007 94.3592,49.5764126 C96.66,48.8786047 98.72,47.7422389 100.5392,46.167556 L102.1984,54.5152455 C98.2208,57.9688889 92.2104,59.6956705 84.1664,59.6956705 C79.54696,59.6956705 75.57856,58.344681 72.26112,55.6426218 C68.65832,52.6900612 66.85688,48.6012152 66.85688,43.3760836 C66.85688,39.4393362 67.87352,35.9051889 69.9068,32.7737218 C71.79736,29.9105744 74.3568,27.736406 77.58504,26.2512165 C80.8136,24.7659468 84.3,24.023352 88.0456,24.023352 Z M127.1592,24.023352 C132.0104,24.023352 135.676,25.0880428 138.1552,27.2175047 C140.652,29.3468862 141.8912,31.9773507 141.873785,35.1088981 C141.873785,38.2403652 140.384,41.0229283 137.4056,43.4565876 C134.4272,45.8902468 130.4144,47.1070362 125.3664,47.1070362 L123.8952,47.1070362 L123.8952,47.1070362 C123.4312,47.1070362 122.9856,47.0891376 122.5576,47.0533402 C122.5576,49.182802 123.6904,50.3458955 125.9552,50.5427007 C126.5792,50.5963968 127.1856,50.6232849 127.7744,50.6232849 C129.2904,50.6232849 131.1904,50.2743007 133.4728,49.5764126 C135.7736,48.8786047 137.8336,47.7422389 139.6528,46.167556 L141.312,54.5152455 C137.3344,57.9688889 131.324,59.6956705 123.28,59.6956705 C118.6608,59.6956705 114.692,58.344681 111.3744,55.6426218 C107.772,52.6900612 105.9704,48.6012152 105.9704,43.3760836 C105.9704,39.4393362 106.9872,35.9051889 109.02,32.7737218 C110.9112,29.9105744 113.4704,27.736406 116.6984,26.2512165 C119.9272,24.7659468 123.4136,24.023352 127.1592,24.023352 Z M200,13.5283823 L198.1736,58.7025744 L183.0048,58.7025744 L184.8304,13.5283823 L200,13.5283823 Z M166.4,17.6578947 C166.9704,19.5546737 160.283517,30.2216663 164.4408,33.6840665 C166.4,35.3157895 168.8,34.5131579 174.4,36.9210526 C180,39.3289474 177.368,49.8000257 176.904,50.9453007 C174.8712,55.9557283 165.5216,58.4211718 158.0488,58.4211718 C154.4104,58.4211718 151.656,58.4211718 148.9168,56.5888441 L148.9168,56.5888441 L146.1768,45.4964757 C146.4624,45.6217665 146.9176,45.7916836 147.5416,46.0064678 C150.3064,46.9548573 152.696,47.429052 154.7112,47.429052 C157.5656,47.429052 160.788,46.7720178 160.788,44.6783533 C160.788,42.4952757 158.0448,41.6023481 157.1352,41.0136178 C155.2392,39.7863139 153.4824,38.6903205 152.036,37.0145862 C150.7432,35.5164744 150.7432,33.1938191 150.7432,31.8517389 C150.7432,27.0667705 153.0408,19.8011618 154.4,17.6578947 L154.4,17.6578947 Z M87.6712,32.5321297 C85.9944,32.6931376 84.9064,33.5610231 84.4072,35.135706 C84.1576,35.8872902 83.9792,36.7640849 83.872,37.7661705 C83.7832,38.7503573 83.64,39.8061389 83.444,40.9335152 L89.3032,39.6182428 L89.8112,35.5114981 L89.8648,34.8941941 C89.8648,33.319431 89.1336,32.5321297 87.6712,32.5321297 Z M126.7848,32.5321297 C125.108,32.6931376 124.02,33.5610231 123.5208,35.135706 C123.2712,35.8872902 123.0928,36.7640849 122.9856,37.7661705 C122.8968,38.7503573 122.7536,39.8061389 122.5576,40.9335152 L128.4168,39.6182428 L128.9248,35.5114981 L128.9784,34.8941941 C128.9784,33.319431 128.2472,32.5321297 126.7848,32.5321297 Z M161.04,0.000389018919 C163.5192,0.000389018919 165.4992,0.743007032 166.9792,2.22823664 C168.46,3.71346624 169.2,5.39553322 169.2,7.27442953 C169.2,9.15331782 168.6296,10.6832941 167.488,11.8642862 C166.9168,12.4727612 166.1944,12.946956 165.3208,13.2869507 C164.4472,13.6448441 163.3856,13.8237507 162.1368,13.8237507 C159.7648,13.8237507 157.7848,13.0453586 156.1976,11.4885744 C154.6104,9.94960861 153.8168,8.2586244 153.8168,6.41550137 C153.8344,4.57238637 154.4232,3.03347677 155.5824,1.79877256 C156.7416,0.581959006 158.5608,-0.0175056521 161.04,0.000389018919 Z" id="path-1"></path>
    </defs>
    <g id="UI-Light" stroke="none" stroke-width="1" fill="none" fill-rule="evenodd">
        <g id="0.0---App-loading" transform="translate(-87.000000, -376.000000)">
            <g id="Weebl-Logo" transform="translate(87.000000, 376.000000)">
                <mask id="mask-2" fill="white">
                    <use xlink:href="#path-1"></use>
                </mask>
                <use id="Combined-Shape" fill="#FF3754" xlink:href="#path-1"></use>
            </g>
        </g>
    </g>
</svg>